<?xml version="1.0" encoding="UTF-8" standalone="no"?>
<!DOCTYPE svg PUBLIC "-//W3C//DTD SVG 1.1//EN" "http://www.w3.org/Graphics/SVG/1.1/DTD/svg11.dtd">
<svg xmlns="http://www.w3.org/2000/svg" version="1.1" viewBox="0.00 0.00 1024.00 1024.00">
<path fill="#fcfcfc" d="
  M 1024.00 0.00
  L 1024.00 1024.00
  L 0.00 1024.00
  L 0.00 0.00
  L 1024.00 0.00
  Z
  M 847.48 435.20
  L 843.41 427.14
  L 838.89 419.53
  L 833.92 412.34
  L 828.50 405.60
  L 823.02 399.72
  L 817.20 394.34
  L 810.98 389.41
  L 804.45 385.00
  L 800.30 382.56
  L 796.05 380.32
  L 791.71 378.28
  L 787.29 376.44
  L 782.74 374.79
  L 778.11 373.35
  L 773.42 372.12
  L 768.66 371.10
  L 763.85 370.30
  L 758.99 369.71
  L 754.09 369.33
  L 749.15 369.17
  L 744.23 369.23
  L 739.29 369.50
  L 734.33 369.98
  L 729.36 370.68
  L 725.46 371.40
  L 725.46 371.40
  L 717.43 373.42
  L 709.55 376.15
  L 700.98 379.94
  L 692.90 384.37
  L 685.23 389.45
  L 678.07 395.15
  L 673.33 399.53
  L 668.86 404.20
  L 664.66 409.15
  L 660.75 414.37
  L 657.13 419.86
  L 653.79 425.61
  L 650.76 431.61
  L 648.02 437.86
  L 647.69 438.31
  L 647.18 438.50
  L 640.36 439.59
  L 633.63 441.25
  L 627.13 443.45
  L 620.85 446.19
  L 614.97 449.41
  L 609.59 453.03
  L 604.58 457.13
  L 600.16 461.56
  L 597.31 465.03
  L 594.82 468.77
  L 592.78 472.64
  L 591.27 476.49
  L 590.26 480.39
  L 589.79 484.16
  L 589.83 487.99
  L 590.39 491.62
  L 590.83 493.29
  L 591.23 494.03
  L 591.89 494.55
  L 592.70 494.76
  L 593.53 494.65
  L 593.62 494.61
  L 595.30 493.59
  L 596.20 492.65
  L 601.81 485.82
  L 607.24 480.18
  L 612.85 475.39
  L 618.70 471.35
  L 624.81 468.06
  L 631.17 465.52
  L 631.17 465.52
  L 635.00 464.38
  L 638.91 463.50
  L 642.92 462.87
  L 647.00 462.50
  L 651.18 462.39
  L 655.44 462.53
  L 659.78 462.93
  L 664.21 463.59
  L 664.90 463.61
  L 665.46 463.41
  L 665.46 463.41
  L 665.88 463.00
  L 666.16 462.37
  L 667.71 457.41
  L 669.48 452.54
  L 671.43 447.86
  L 673.59 443.30
  L 675.94 438.88
  L 678.50 434.60
  L 681.21 430.56
  L 684.11 426.67
  L 687.16 423.01
  L 690.40 419.52
  L 693.75 416.30
  L 697.28 413.26
  L 700.90 410.49
  L 704.69 407.92
  L 708.56 405.62
  L 712.59 403.53
  L 716.74 401.68
  L 721.04 400.06
  L 724.82 398.87
  L 729.84 397.59
  L 734.89 396.63
  L 740.06 395.99
  L 745.25 395.67
  L 750.45 395.68
  L 755.62 396.02
  L 760.75 396.68
  L 765.83 397.66
  L 770.82 398.94
  L 775.72 400.54
  L 780.52 402.44
  L 785.20 404.65
  L 789.72 407.14
  L 794.09 409.92
  L 798.21 412.94
  L 802.16 416.22
  L 803.90 417.81
  L 808.15 422.13
  L 812.06 426.74
  L 815.67 431.68
  L 819.04 437.04
  L 822.07 442.66
  L 824.82 448.66
  L 827.22 454.91
  L 829.25 461.31
  L 829.70 462.33
  L 830.38 462.98
  L 831.19 463.26
  L 832.19 463.23
  L 840.87 462.05
  L 849.35 461.55
  L 857.62 461.72
  L 865.68 462.57
  L 870.55 463.44
  L 875.28 464.59
  L 879.97 466.04
  L 884.51 467.75
  L 888.94 469.75
  L 893.21 472.00
  L 897.30 474.50
  L 901.20 477.24
  L 904.41 479.78
  L 907.48 482.49
  L 910.39 485.35
  L 913.15 488.36
  L 915.75 491.52
  L 918.18 494.82
  L 920.45 498.25
  L 922.53 501.81
  L 924.43 505.47
  L 926.14 509.24
  L 927.67 513.11
  L 929.00 517.09
  L 930.13 521.11
  L 931.06 525.22
  L 931.79 529.41
  L 932.31 533.67
  L 932.64 538.04
  L 932.76 542.36
  L 932.68 546.73
  L 932.39 551.03
  L 931.89 555.30
  L 931.20 559.50
  L 930.30 563.62
  L 929.22 567.66
  L 927.92 571.68
  L 926.43 575.61
  L 924.75 579.43
  L 922.89 583.14
  L 920.82 586.79
  L 918.58 590.32
  L 916.16 593.72
  L 913.57 596.99
  L 908.22 602.80
  L 902.30 608.09
  L 895.93 612.75
  L 889.07 616.83
  L 881.88 620.22
  L 874.26 622.99
  L 866.40 625.05
  L 858.19 626.43
  L 849.75 627.19
  L 840.84 627.43
  L 658.74 627.44
  L 649.71 627.13
  L 645.94 626.74
  L 642.66 626.19
  L 636.09 624.52
  L 629.89 622.31
  L 624.06 619.55
  L 618.59 616.25
  L 618.59 616.25
  L 618.59 616.25
  L 618.59 616.25
  L 618.59 616.25
  L 613.38 612.31
  L 608.55 607.81
  L 604.11 602.74
  L 600.05 597.10
  L 598.06 593.74
  L 595.60 588.86
  L 593.23 584.18
  L 592.84 583.66
  L 592.31 583.28
  L 591.43 582.99
  L 590.72 583.08
  L 590.72 583.08
  L 590.31 583.39
  L 589.99 583.90
  L 589.15 586.49
  L 588.78 589.41
  L 588.64 598.17
  L 589.04 605.62
  L 589.79 610.04
  L 591.17 614.48
  L 593.12 618.75
  L 595.67 622.95
  L 598.79 627.02
  L 602.45 630.90
  L 606.53 634.47
  L 611.02 637.74
  L 615.31 640.40
  L 619.68 642.77
  L 624.77 645.14
  L 629.97 647.15
  L 635.40 648.87
  L 640.94 650.25
  L 646.70 651.33
  L 652.76 652.11
  L 658.94 652.57
  L 665.44 652.74
  L 842.53 653.04
  L 851.71 652.81
  L 860.48 652.11
  L 868.81 650.92
  L 876.73 649.26
  L 885.27 646.79
  L 893.62 643.62
  L 901.62 639.79
  L 909.18 635.38
  L 916.29 630.40
  L 922.92 624.91
  L 929.13 618.86
  L 934.82 612.36
  L 940.01 605.36
  L 944.63 597.99
  L 948.66 590.26
  L 952.08 582.23
  L 954.86 573.95
  L 956.99 565.43
  L 958.45 556.83
  L 959.24 548.08
  L 959.34 539.39
  L 958.76 530.62
  L 957.52 521.98
  L 955.58 513.33
  L 953.61 506.73
  L 951.28 500.37
  L 948.56 494.18
  L 945.49 488.26
  L 942.07 482.59
  L 938.31 477.20
  L 934.19 472.03
  L 929.75 467.18
  L 925.84 463.38
  L 921.73 459.81
  L 917.43 456.47
  L 912.96 453.36
  L 908.31 450.49
  L 903.50 447.87
  L 898.54 445.49
  L 893.43 443.37
  L 888.20 441.50
  L 882.83 439.90
  L 877.35 438.55
  L 871.75 437.48
  L 866.11 436.68
  L 860.38 436.16
  L 854.56 435.90
  L 848.66 435.93
  L 847.95 435.76
  L 847.48 435.20
  Z
  M 545.32 495.76
  L 545.11 496.16
  L 544.67 496.23
  L 544.67 496.23
  L 544.53 496.15
  L 539.56 492.72
  L 534.44 489.88
  L 529.17 487.63
  L 523.76 485.97
  L 523.76 485.97
  L 519.40 485.08
  L 514.95 484.56
  L 509.45 484.29
  L 504.32 484.35
  L 499.55 484.73
  L 495.16 485.42
  L 491.52 486.29
  L 488.01 487.39
  L 484.54 488.76
  L 481.21 490.35
  L 478.20 492.04
  L 475.32 493.92
  L 472.58 495.97
  L 469.99 498.19
  L 467.51 500.61
  L 465.18 503.19
  L 463.01 505.91
  L 461.01 508.76
  L 459.16 511.77
  L 457.50 514.91
  L 456.01 518.15
  L 454.72 521.50
  L 453.64 524.88
  L 452.75 528.35
  L 452.05 531.89
  L 451.56 535.49
  L 451.23 539.57
  L 451.12 543.63
  L 451.22 547.66
  L 451.54 551.66
  L 452.07 555.55
  L 452.81 559.38
  L 453.77 563.14
  L 454.94 566.80
  L 456.30 570.30
  L 457.87 573.68
  L 459.60 576.87
  L 461.53 579.92
  L 463.65 582.83
  L 465.97 585.59
  L 468.41 588.12
  L 471.05 590.50
  L 474.62 593.23
  L 478.49 595.69
  L 482.55 597.79
  L 486.91 599.59
  L 490.75 600.85
  L 494.70 601.86
  L 498.72 602.61
  L 502.79 603.11
  L 506.88 603.35
  L 510.97 603.31
  L 514.95 603.01
  L 518.89 602.44
  L 522.68 601.63
  L 526.40 600.54
  L 529.93 599.23
  L 533.35 597.65
  L 536.54 595.87
  L 539.58 593.84
  L 542.40 591.62
  L 545.05 589.15
  L 545.63 588.55
  L 546.11 588.28
  L 546.26 588.81
  L 546.17 599.74
  L 546.41 600.33
  L 546.99 600.57
  L 576.06 600.61
  L 576.35 600.49
  L 576.47 600.20
  L 576.38 429.28
  L 576.13 428.67
  L 575.53 428.42
  L 575.53 428.42
  L 575.53 428.42
  L 545.94 428.43
  L 545.46 428.59
  L 545.30 429.06
  L 545.32 495.76
  Z
  M 64.02 576.87
  L 63.86 577.36
  L 64.06 577.84
  L 65.74 579.83
  L 67.83 582.00
  L 70.08 584.01
  L 73.83 586.94
  L 77.70 589.63
  L 81.69 592.08
  L 85.80 594.29
  L 85.80 594.29
  L 85.80 594.29
  L 89.58 596.07
  L 93.47 597.66
  L 97.45 599.05
  L 101.53 600.25
  L 105.71 601.25
  L 109.98 602.07
  L 114.35 602.68
  L 118.82 603.11
  L 122.99 603.31
  L 127.12 603.30
  L 131.20 603.08
  L 135.21 602.65
  L 139.09 602.02
  L 142.88 601.18
  L 146.57 600.14
  L 150.14 598.88
  L 153.51 597.45
  L 156.74 595.81
  L 159.75 594.03
  L 162.60 592.05
  L 165.28 589.89
  L 167.79 587.54
  L 170.06 585.07
  L 172.14 582.42
  L 174.01 579.61
  L 175.69 576.63
  L 177.12 573.55
  L 178.34 570.31
  L 179.35 566.93
  L 180.13 563.37
  L 180.68 559.75
  L 181.01 555.97
  L 181.00 549.23
  L 180.68 545.96
  L 180.17 542.82
  L 179.46 539.81
  L 178.56 536.94
  L 177.44 534.10
  L 176.13 531.39
  L 173.58 527.24
  L 170.57 523.43
  L 167.01 519.85
  L 163.01 516.62
  L 158.51 513.65
  L 153.42 510.91
  L 147.95 508.52
  L 141.92 506.40
  L 117.70 499.08
  L 114.48 498.01
  L 111.50 496.75
  L 108.87 495.34
  L 106.62 493.81
  L 104.65 492.08
  L 103.11 490.29
  L 101.91 488.36
  L 101.05 486.24
  L 100.65 484.55
  L 100.49 482.74
  L 100.55 480.93
  L 100.85 479.01
  L 101.49 476.83
  L 102.40 474.87
  L 103.76 472.88
  L 105.41 471.17
  L 107.35 469.68
  L 109.68 468.36
  L 112.26 467.31
  L 115.15 466.50
  L 118.12 465.99
  L 121.27 465.76
  L 125.92 465.82
  L 130.47 466.25
  L 134.90 467.04
  L 139.21 468.18
  L 139.21 468.18
  L 139.21 468.18
  L 139.21 468.18
  L 139.21 468.18
  L 144.02 469.94
  L 148.68 472.18
  L 153.19 474.89
  L 157.56 478.07
  L 158.45 478.32
  L 159.23 477.86
  L 159.26 477.82
  L 174.58 455.50
  L 174.84 454.93
  L 174.88 454.31
  L 174.70 453.71
  L 174.32 453.21
  L 171.43 450.74
  L 168.40 448.47
  L 165.16 446.33
  L 161.79 444.39
  L 158.20 442.60
  L 154.51 441.02
  L 150.63 439.60
  L 146.67 438.40
  L 142.57 437.39
  L 138.42 436.60
  L 134.14 436.00
  L 129.83 435.62
  L 125.47 435.45
  L 121.12 435.49
  L 116.80 435.75
  L 112.53 436.22
  L 106.53 437.32
  L 100.79 438.95
  L 95.36 441.12
  L 90.29 443.80
  L 85.73 446.89
  L 81.60 450.46
  L 78.02 454.41
  L 74.93 458.79
  L 72.68 462.95
  L 70.86 467.43
  L 69.53 472.09
  L 68.66 477.05
  L 68.25 482.32
  L 68.32 487.64
  L 68.88 492.82
  L 69.91 497.70
  L 71.41 502.32
  L 73.33 506.54
  L 75.74 510.49
  L 78.51 513.97
  L 81.76 517.18
  L 85.47 520.14
  L 89.70 522.89
  L 94.42 525.40
  L 99.57 527.67
  L 105.33 529.80
  L 111.93 531.91
  L 121.01 534.50
  L 129.35 536.87
  L 132.78 537.98
  L 135.78 539.16
  L 138.36 540.41
  L 140.61 541.76
  L 142.59 543.28
  L 144.20 544.87
  L 145.52 546.60
  L 146.57 548.54
  L 147.44 551.23
  L 147.76 554.07
  L 147.65 556.97
  L 147.18 559.58
  L 146.34 562.02
  L 145.18 564.17
  L 143.64 566.13
  L 141.82 567.80
  L 139.63 569.27
  L 137.20 570.46
  L 134.44 571.42
  L 131.31 572.15
  L 128.02 572.61
  L 124.47 572.80
  L 118.66 572.58
  L 112.93 571.76
  L 107.16 570.33
  L 101.54 568.34
  L 95.96 565.75
  L 90.62 562.64
  L 85.47 558.99
  L 80.66 554.90
  L 80.20 554.62
  L 79.66 554.55
  L 79.15 554.70
  L 78.73 555.05
  L 78.67 555.13
  L 64.02 576.87
  Z
  M 354.84 496.55
  L 354.69 487.31
  L 354.52 486.83
  L 354.06 486.68
  L 325.02 486.54
  L 324.53 486.75
  L 324.32 487.25
  L 324.40 599.84
  L 324.60 600.33
  L 325.09 600.53
  L 354.68 600.60
  L 354.97 600.48
  L 355.09 600.18
  L 355.14 543.59
  L 355.27 539.31
  L 355.64 535.39
  L 356.25 531.87
  L 357.09 528.72
  L 358.22 525.79
  L 359.57 523.26
  L 361.18 521.00
  L 363.12 518.98
  L 365.80 516.96
  L 368.99 515.35
  L 372.54 514.22
  L 376.62 513.52
  L 379.82 513.31
  L 382.93 513.37
  L 385.83 513.71
  L 388.60 514.33
  L 391.13 515.20
  L 393.48 516.35
  L 395.58 517.72
  L 397.48 519.36
  L 399.27 521.42
  L 400.80 523.81
  L 402.00 526.45
  L 402.91 529.40
  L 403.87 534.35
  L 404.21 538.78
  L 404.41 599.62
  L 404.62 600.28
  L 405.30 600.52
  L 435.00 600.61
  L 435.45 600.43
  L 435.63 599.98
  L 435.70 536.27
  L 435.46 529.33
  L 434.70 522.82
  L 433.39 516.62
  L 431.57 510.96
  L 429.22 505.77
  L 426.41 501.17
  L 423.06 497.01
  L 419.28 493.49
  L 416.94 491.75
  L 414.42 490.17
  L 411.82 488.80
  L 409.05 487.61
  L 406.12 486.60
  L 403.02 485.77
  L 399.85 485.14
  L 396.51 484.70
  L 390.43 484.33
  L 384.56 484.47
  L 378.99 485.12
  L 373.76 486.26
  L 368.85 487.91
  L 364.37 490.02
  L 360.21 492.66
  L 356.53 495.72
  L 355.45 496.79
  L 355.00 497.03
  L 354.84 496.55
  Z
  M 223.97 555.60
  L 304.76 555.59
  L 305.18 555.42
  L 305.37 555.00
  L 305.58 546.71
  L 305.43 539.61
  L 304.90 533.13
  L 303.97 527.13
  L 302.63 521.53
  L 300.84 516.28
  L 298.62 511.43
  L 295.96 506.91
  L 293.27 503.22
  L 290.52 500.05
  L 287.58 497.18
  L 284.47 494.60
  L 281.16 492.32
  L 281.16 492.32
  L 281.16 492.32
  L 278.51 490.77
  L 275.76 489.40
  L 269.93 487.16
  L 263.66 485.61
  L 256.97 484.74
  L 251.47 484.52
  L 246.11 484.70
  L 240.99 485.28
  L 236.04 486.25
  L 231.27 487.63
  L 226.70 489.41
  L 222.42 491.56
  L 218.35 494.10
  L 213.64 497.80
  L 209.31 502.13
  L 205.46 506.98
  L 202.02 512.45
  L 199.48 517.66
  L 197.43 523.32
  L 195.93 529.23
  L 194.94 535.48
  L 194.51 541.92
  L 194.63 548.56
  L 195.32 555.18
  L 196.53 561.61
  L 198.29 567.67
  L 200.69 573.42
  L 203.69 578.74
  L 207.22 583.54
  L 209.40 585.99
  L 211.72 588.27
  L 214.25 590.46
  L 216.92 592.47
  L 219.75 594.33
  L 222.69 596.01
  L 225.75 597.52
  L 228.91 598.85
  L 232.26 600.03
  L 235.71 601.03
  L 242.84 602.46
  L 250.25 603.15
  L 257.85 603.09
  L 265.04 602.30
  L 268.47 601.63
  L 271.79 600.77
  L 275.00 599.73
  L 278.09 598.51
  L 281.08 597.10
  L 283.96 595.50
  L 283.96 595.50
  L 283.96 595.50
  L 283.96 595.50
  L 283.96 595.50
  L 287.82 592.95
  L 291.45 590.04
  L 294.88 586.76
  L 298.08 583.11
  L 298.35 582.21
  L 297.90 581.38
  L 279.71 566.53
  L 278.90 566.24
  L 278.09 566.54
  L 277.52 567.01
  L 277.52 567.01
  L 277.52 567.01
  L 273.59 569.68
  L 269.20 571.78
  L 264.35 573.30
  L 259.04 574.24
  L 254.43 574.57
  L 249.84 574.44
  L 245.42 573.85
  L 241.35 572.84
  L 237.54 571.37
  L 234.18 569.54
  L 231.10 567.24
  L 228.50 564.62
  L 227.02 562.70
  L 225.71 560.60
  L 224.61 558.39
  L 223.68 556.00
  L 223.67 555.95
  L 223.74 555.71
  L 223.97 555.60
  Z
  M 670.13 495.72
  L 670.13 487.42
  L 669.92 486.92
  L 669.42 486.71
  L 641.62 486.65
  L 641.36 486.74
  L 641.27 487.01
  L 641.41 599.91
  L 641.59 600.36
  L 642.04 600.54
  L 671.22 600.56
  L 671.72 600.39
  L 671.89 599.89
  L 671.86 534.99
  L 671.97 531.83
  L 672.28 528.89
  L 672.79 526.25
  L 673.49 523.90
  L 674.42 521.71
  L 675.51 519.87
  L 676.81 518.25
  L 678.36 516.83
  L 679.85 515.84
  L 681.54 515.02
  L 684.14 514.14
  L 686.80 513.58
  L 689.46 513.35
  L 692.09 513.46
  L 694.47 513.89
  L 696.73 514.65
  L 698.75 515.71
  L 700.58 517.10
  L 701.87 518.43
  L 703.01 519.99
  L 703.92 521.68
  L 704.67 523.57
  L 705.99 528.79
  L 706.33 531.33
  L 706.45 533.82
  L 706.62 599.87
  L 706.82 600.36
  L 707.31 600.57
  L 736.46 600.57
  L 736.88 600.43
  L 737.01 600.03
  L 737.05 533.50
  L 737.16 530.61
  L 737.47 527.89
  L 737.99 525.33
  L 738.69 523.06
  L 739.57 521.08
  L 740.68 519.24
  L 741.94 517.70
  L 743.45 516.35
  L 745.55 515.07
  L 748.04 514.14
  L 750.49 513.60
  L 752.94 513.30
  L 755.26 513.27
  L 757.52 513.48
  L 759.65 513.95
  L 761.67 514.69
  L 763.46 515.65
  L 765.11 516.87
  L 766.37 518.11
  L 767.50 519.55
  L 768.43 521.11
  L 769.21 522.85
  L 770.18 525.83
  L 770.88 529.04
  L 771.32 532.48
  L 771.48 536.14
  L 771.57 599.87
  L 771.57 599.87
  L 771.76 600.34
  L 772.23 600.53
  L 801.26 600.63
  L 801.76 600.43
  L 801.97 599.93
  L 801.97 599.93
  L 802.08 545.77
  L 801.96 535.44
  L 801.42 526.93
  L 800.39 519.45
  L 798.84 512.74
  L 796.72 506.74
  L 795.46 504.04
  L 794.03 501.45
  L 792.49 499.12
  L 790.78 496.93
  L 788.95 494.94
  L 786.93 493.09
  L 784.40 491.17
  L 781.60 489.46
  L 778.63 488.02
  L 775.39 486.80
  L 769.84 485.37
  L 764.18 484.64
  L 758.51 484.62
  L 752.93 485.33
  L 747.70 486.71
  L 742.70 488.78
  L 738.10 491.51
  L 734.05 494.80
  L 730.78 498.31
  L 730.74 498.35
  L 730.40 498.47
  L 730.08 498.29
  L 727.72 495.39
  L 725.58 493.29
  L 723.28 491.43
  L 720.74 489.76
  L 718.06 488.34
  L 715.13 487.10
  L 712.09 486.12
  L 708.87 485.37
  L 705.58 484.88
  L 702.14 484.63
  L 698.67 484.65
  L 695.13 484.92
  L 691.62 485.45
  L 688.18 486.22
  L 684.84 487.23
  L 681.64 488.47
  L 678.60 489.93
  L 674.68 492.45
  L 670.66 495.95
  L 670.26 496.15
  L 670.13 495.72
  Z
  M 838.61 555.44
  L 919.74 555.39
  L 920.13 555.23
  L 920.32 554.85
  L 920.65 548.74
  L 920.66 542.92
  L 920.34 537.44
  L 919.70 532.22
  L 918.73 527.21
  L 917.43 522.49
  L 915.77 517.89
  L 913.79 513.60
  L 911.96 510.31
  L 909.95 507.20
  L 907.71 504.19
  L 905.29 501.38
  L 902.69 498.76
  L 899.94 496.35
  L 897.04 494.15
  L 894.00 492.17
  L 889.86 489.92
  L 885.53 488.06
  L 881.03 486.59
  L 876.38 485.53
  L 871.62 484.88
  L 866.76 484.66
  L 861.92 484.85
  L 857.03 485.47
  L 852.29 486.48
  L 847.78 487.87
  L 843.49 489.64
  L 839.43 491.79
  L 839.43 491.79
  L 839.43 491.79
  L 839.43 491.79
  L 835.13 494.66
  L 831.11 498.02
  L 827.38 501.85
  L 823.93 506.16
  L 821.65 509.56
  L 819.14 514.04
  L 817.07 518.68
  L 815.37 523.60
  L 814.10 528.65
  L 813.20 534.02
  L 812.73 539.49
  L 812.66 545.19
  L 812.99 550.95
  L 813.86 557.18
  L 815.30 563.17
  L 817.29 568.90
  L 819.82 574.31
  L 822.87 579.36
  L 826.42 584.02
  L 830.40 588.18
  L 834.83 591.89
  L 839.26 594.83
  L 844.04 597.33
  L 849.06 599.33
  L 854.41 600.86
  L 859.92 601.93
  L 865.37 602.56
  L 870.64 602.75
  L 875.81 602.50
  L 880.78 601.81
  L 885.61 600.67
  L 890.21 599.12
  L 894.66 597.12
  L 899.44 594.34
  L 903.98 590.97
  L 908.16 587.10
  L 912.07 582.64
  L 912.35 581.73
  L 911.94 580.88
  L 903.76 573.70
  L 894.80 566.69
  L 893.99 566.43
  L 893.19 566.73
  L 889.47 569.40
  L 889.47 569.40
  L 886.91 570.80
  L 884.22 571.98
  L 881.38 572.92
  L 878.40 573.63
  L 873.74 574.35
  L 869.14 574.65
  L 864.79 574.53
  L 860.57 573.97
  L 856.72 573.02
  L 853.07 571.63
  L 849.76 569.86
  L 846.71 567.65
  L 844.18 565.25
  L 841.90 562.47
  L 839.96 559.38
  L 838.29 555.91
  L 838.27 555.85
  L 838.34 555.56
  L 838.61 555.44
  Z"
/>
<path fill="#2e4e57" d="
  M 848.66 435.93
  L 854.56 435.90
  L 860.38 436.16
  L 866.11 436.68
  L 871.75 437.48
  L 877.35 438.55
  L 882.83 439.90
  L 888.20 441.50
  L 893.43 443.37
  L 898.54 445.49
  L 903.50 447.87
  L 908.31 450.49
  L 912.96 453.36
  L 917.43 456.47
  L 921.73 459.81
  L 925.84 463.38
  L 929.75 467.18
  L 934.19 472.03
  L 938.31 477.20
  L 942.07 482.59
  L 945.49 488.26
  L 948.56 494.18
  L 951.28 500.37
  L 953.61 506.73
  L 955.58 513.33
  L 957.52 521.98
  L 958.76 530.62
  L 959.34 539.39
  L 959.24 548.08
  L 958.45 556.83
  L 956.99 565.43
  L 954.86 573.95
  L 952.08 582.23
  L 948.66 590.26
  L 944.63 597.99
  L 940.01 605.36
  L 934.82 612.36
  L 929.13 618.86
  L 922.92 624.91
  L 916.29 630.40
  L 909.18 635.38
  L 901.62 639.79
  L 893.62 643.62
  L 885.27 646.79
  L 876.73 649.26
  L 868.81 650.92
  L 860.48 652.11
  L 851.71 652.81
  L 842.53 653.04
  L 665.44 652.74
  L 658.94 652.57
  L 652.76 652.11
  L 646.70 651.33
  L 640.94 650.25
  L 635.40 648.87
  L 629.97 647.15
  L 624.77 645.14
  L 619.68 642.77
  L 615.31 640.40
  L 611.02 637.74
  L 606.53 634.47
  L 602.45 630.90
  L 598.79 627.02
  L 595.67 622.95
  L 593.12 618.75
  L 591.17 614.48
  L 589.79 610.04
  L 589.04 605.62
  L 588.64 598.17
  L 588.78 589.41
  L 589.15 586.49
  L 589.99 583.90
  L 590.31 583.39
  L 590.72 583.08
  L 590.72 583.08
  L 591.43 582.99
  L 592.31 583.28
  L 592.84 583.66
  L 593.23 584.18
  L 595.60 588.86
  L 598.06 593.74
  L 600.05 597.10
  L 604.11 602.74
  L 608.55 607.81
  L 613.38 612.31
  L 618.59 616.25
  L 618.59 616.25
  L 618.59 616.25
  L 624.06 619.55
  L 629.89 622.31
  L 636.09 624.52
  L 642.66 626.19
  L 645.94 626.74
  L 649.71 627.13
  L 658.74 627.44
  L 840.84 627.43
  L 849.75 627.19
  L 858.19 626.43
  L 866.40 625.05
  L 874.26 622.99
  L 881.88 620.22
  L 889.07 616.83
  L 895.93 612.75
  L 902.30 608.09
  L 908.22 602.80
  L 913.57 596.99
  L 916.16 593.72
  L 918.58 590.32
  L 920.82 586.79
  L 922.89 583.14
  L 924.75 579.43
  L 926.43 575.61
  L 927.92 571.68
  L 929.22 567.66
  L 930.30 563.62
  L 931.20 559.50
  L 931.89 555.30
  L 932.39 551.03
  L 932.68 546.73
  L 932.76 542.36
  L 932.64 538.04
  L 932.31 533.67
  L 931.79 529.41
  L 931.06 525.22
  L 930.13 521.11
  L 929.00 517.09
  L 927.67 513.11
  L 926.14 509.24
  L 924.43 505.47
  L 922.53 501.81
  L 920.45 498.25
  L 918.18 494.82
  L 915.75 491.52
  L 913.15 488.36
  L 910.39 485.35
  L 907.48 482.49
  L 904.41 479.78
  L 901.20 477.24
  L 897.30 474.50
  L 893.21 472.00
  L 888.94 469.75
  L 884.51 467.75
  L 879.97 466.04
  L 875.28 464.59
  L 870.55 463.44
  L 865.68 462.57
  L 857.62 461.72
  L 849.35 461.55
  L 840.87 462.05
  L 832.19 463.23
  L 831.19 463.26
  L 830.38 462.98
  L 829.70 462.33
  L 829.25 461.31
  L 827.22 454.91
  L 824.82 448.66
  L 822.07 442.66
  L 819.04 437.04
  L 815.67 431.68
  L 812.06 426.74
  L 808.15 422.13
  L 803.90 417.81
  L 802.16 416.22
  L 798.21 412.94
  L 794.09 409.92
  L 789.72 407.14
  L 785.20 404.65
  L 780.52 402.44
  L 775.72 400.54
  L 770.82 398.94
  L 765.83 397.66
  L 760.75 396.68
  L 755.62 396.02
  L 750.45 395.68
  L 745.25 395.67
  L 740.06 395.99
  L 734.89 396.63
  L 729.84 397.59
  L 724.82 398.87
  L 721.04 400.06
  L 716.74 401.68
  L 712.59 403.53
  L 708.56 405.62
  L 704.69 407.92
  L 700.90 410.49
  L 697.28 413.26
  L 693.75 416.30
  L 690.40 419.52
  L 687.16 423.01
  L 684.11 426.67
  L 681.21 430.56
  L 678.50 434.60
  L 675.94 438.88
  L 673.59 443.30
  L 671.43 447.86
  L 669.48 452.54
  L 667.71 457.41
  L 666.16 462.37
  L 665.88 463.00
  L 665.46 463.41
  L 665.46 463.41
  L 665.46 463.41
  L 664.90 463.61
  L 664.21 463.59
  L 659.78 462.93
  L 655.44 462.53
  L 651.18 462.39
  L 647.00 462.50
  L 642.92 462.87
  L 638.91 463.50
  L 635.00 464.38
  L 631.17 465.52
  L 631.17 465.52
  L 624.81 468.06
  L 618.70 471.35
  L 612.85 475.39
  L 607.24 480.18
  L 601.81 485.82
  L 596.20 492.65
  L 595.30 493.59
  L 593.62 494.61
  L 593.53 494.65
  L 592.70 494.76
  L 591.89 494.55
  L 591.23 494.03
  L 590.83 493.29
  L 590.39 491.62
  L 589.83 487.99
  L 589.79 484.16
  L 590.26 480.39
  L 591.27 476.49
  L 592.78 472.64
  L 594.82 468.77
  L 597.31 465.03
  L 600.16 461.56
  L 604.58 457.13
  L 609.59 453.03
  L 614.97 449.41
  L 620.85 446.19
  L 627.13 443.45
  L 633.63 441.25
  L 640.36 439.59
  L 647.18 438.50
  L 647.69 438.31
  L 648.02 437.86
  L 650.76 431.61
  L 653.79 425.61
  L 657.13 419.86
  L 660.75 414.37
  L 664.66 409.15
  L 668.86 404.20
  L 673.33 399.53
  L 678.07 395.15
  L 685.23 389.45
  L 692.90 384.37
  L 700.98 379.94
  L 709.55 376.15
  L 717.43 373.42
  L 725.46 371.40
  L 729.36 370.68
  L 734.33 369.98
  L 739.29 369.50
  L 744.23 369.23
  L 749.15 369.17
  L 754.09 369.33
  L 758.99 369.71
  L 763.85 370.30
  L 768.66 371.10
  L 773.42 372.12
  L 778.11 373.35
  L 782.74 374.79
  L 787.29 376.44
  L 791.71 378.28
  L 796.05 380.32
  L 800.30 382.56
  L 804.45 385.00
  L 810.98 389.41
  L 817.20 394.34
  L 823.02 399.72
  L 828.50 405.60
  L 833.92 412.34
  L 838.89 419.53
  L 843.41 427.14
  L 847.48 435.20
  L 847.95 435.76
  L 848.66 435.93
  Z"
/>
<path fill="#2e4e57" d="
  M 545.32 495.76
  L 545.30 429.06
  L 545.46 428.59
  L 545.94 428.43
  L 575.53 428.42
  L 576.13 428.67
  L 576.38 429.28
  L 576.47 600.20
  L 576.35 600.49
  L 576.06 600.61
  L 546.99 600.57
  L 546.99 600.57
  L 546.41 600.33
  L 546.17 599.74
  L 546.26 588.81
  L 546.11 588.28
  L 545.63 588.55
  L 545.05 589.15
  L 542.40 591.62
  L 539.58 593.84
  L 536.54 595.87
  L 533.35 597.65
  L 529.93 599.23
  L 526.40 600.54
  L 522.68 601.63
  L 518.89 602.44
  L 514.95 603.01
  L 510.97 603.31
  L 506.88 603.35
  L 502.79 603.11
  L 498.72 602.61
  L 494.70 601.86
  L 490.75 600.85
  L 486.91 599.59
  L 482.55 597.79
  L 478.49 595.69
  L 474.62 593.23
  L 471.05 590.50
  L 468.41 588.12
  L 465.97 585.59
  L 463.65 582.83
  L 461.53 579.92
  L 459.60 576.87
  L 457.87 573.68
  L 456.30 570.30
  L 454.94 566.80
  L 453.77 563.14
  L 452.81 559.38
  L 452.07 555.55
  L 451.54 551.66
  L 451.22 547.66
  L 451.12 543.63
  L 451.23 539.57
  L 451.56 535.49
  L 452.05 531.89
  L 452.75 528.35
  L 453.64 524.88
  L 454.72 521.50
  L 456.01 518.15
  L 457.50 514.91
  L 459.16 511.77
  L 461.01 508.76
  L 463.01 505.91
  L 465.18 503.19
  L 467.51 500.61
  L 469.99 498.19
  L 472.58 495.97
  L 475.32 493.92
  L 478.20 492.04
  L 481.21 490.35
  L 484.54 488.76
  L 488.01 487.39
  L 491.52 486.29
  L 495.16 485.42
  L 499.55 484.73
  L 504.32 484.35
  L 509.45 484.29
  L 514.95 484.56
  L 519.40 485.08
  L 523.76 485.97
  L 523.76 485.97
  L 529.17 487.63
  L 534.44 489.88
  L 539.56 492.72
  L 544.53 496.15
  L 544.67 496.23
  L 545.11 496.16
  L 545.32 495.76
  Z
  M 508.54 512.11
  L 504.87 512.96
  L 501.47 514.17
  L 498.24 515.78
  L 495.29 517.73
  L 491.94 520.68
  L 489.10 524.07
  L 486.73 527.93
  L 484.91 532.12
  L 483.66 536.64
  L 483.00 541.36
  L 482.96 546.12
  L 483.53 550.95
  L 484.77 555.82
  L 486.71 560.39
  L 489.28 564.46
  L 492.40 567.96
  L 495.16 570.27
  L 498.19 572.22
  L 501.46 573.78
  L 504.94 574.96
  L 508.60 575.75
  L 512.41 576.12
  L 516.25 576.08
  L 520.18 575.64
  L 524.91 574.53
  L 529.25 572.82
  L 533.25 570.51
  L 536.78 567.65
  L 538.61 565.75
  L 540.26 563.69
  L 541.74 561.48
  L 543.03 559.12
  L 544.11 556.66
  L 544.99 554.08
  L 545.68 551.38
  L 546.17 548.57
  L 546.52 544.30
  L 546.43 540.20
  L 545.90 536.19
  L 544.94 532.41
  L 543.53 528.79
  L 541.73 525.45
  L 539.56 522.42
  L 537.03 519.70
  L 534.25 517.40
  L 531.18 515.44
  L 527.85 513.85
  L 524.26 512.66
  L 520.55 511.89
  L 516.64 511.54
  L 512.66 511.61
  L 508.54 512.11
  Z"
/>
<path fill="#2e4e57" d="
  M 64.02 576.87
  L 78.67 555.13
  L 78.73 555.05
  L 79.15 554.70
  L 79.66 554.55
  L 80.20 554.62
  L 80.66 554.90
  L 85.47 558.99
  L 90.62 562.64
  L 95.96 565.75
  L 101.54 568.34
  L 107.16 570.33
  L 112.93 571.76
  L 118.66 572.58
  L 124.47 572.80
  L 128.02 572.61
  L 131.31 572.15
  L 134.44 571.42
  L 137.20 570.46
  L 139.63 569.27
  L 141.82 567.80
  L 143.64 566.13
  L 145.18 564.17
  L 146.34 562.02
  L 147.18 559.58
  L 147.65 556.97
  L 147.76 554.07
  L 147.44 551.23
  L 146.57 548.54
  L 145.52 546.60
  L 144.20 544.87
  L 142.59 543.28
  L 140.61 541.76
  L 138.36 540.41
  L 135.78 539.16
  L 132.78 537.98
  L 129.35 536.87
  L 121.01 534.50
  L 111.93 531.91
  L 105.33 529.80
  L 99.57 527.67
  L 94.42 525.40
  L 89.70 522.89
  L 85.47 520.14
  L 81.76 517.18
  L 78.51 513.97
  L 75.74 510.49
  L 73.33 506.54
  L 71.41 502.32
  L 69.91 497.70
  L 68.88 492.82
  L 68.32 487.64
  L 68.25 482.32
  L 68.66 477.05
  L 69.53 472.09
  L 70.86 467.43
  L 72.68 462.95
  L 74.93 458.79
  L 78.02 454.41
  L 81.60 450.46
  L 85.73 446.89
  L 90.29 443.80
  L 95.36 441.12
  L 100.79 438.95
  L 106.53 437.32
  L 112.53 436.22
  L 116.80 435.75
  L 121.12 435.49
  L 125.47 435.45
  L 129.83 435.62
  L 134.14 436.00
  L 138.42 436.60
  L 142.57 437.39
  L 146.67 438.40
  L 150.63 439.60
  L 154.51 441.02
  L 158.20 442.60
  L 161.79 444.39
  L 165.16 446.33
  L 168.40 448.47
  L 171.43 450.74
  L 174.32 453.21
  L 174.70 453.71
  L 174.88 454.31
  L 174.84 454.93
  L 174.58 455.50
  L 159.26 477.82
  L 159.23 477.86
  L 158.45 478.32
  L 157.56 478.07
  L 153.19 474.89
  L 148.68 472.18
  L 144.02 469.94
  L 139.21 468.18
  L 139.21 468.18
  L 134.90 467.04
  L 130.47 466.25
  L 125.92 465.82
  L 121.27 465.76
  L 118.12 465.99
  L 115.15 466.50
  L 112.26 467.31
  L 109.68 468.36
  L 107.35 469.68
  L 105.41 471.17
  L 103.76 472.88
  L 102.40 474.87
  L 101.49 476.83
  L 100.85 479.01
  L 100.55 480.93
  L 100.49 482.74
  L 100.65 484.55
  L 101.05 486.24
  L 101.91 488.36
  L 103.11 490.29
  L 104.65 492.08
  L 106.62 493.81
  L 108.87 495.34
  L 111.50 496.75
  L 114.48 498.01
  L 117.70 499.08
  L 141.92 506.40
  L 147.95 508.52
  L 153.42 510.91
  L 158.51 513.65
  L 163.01 516.62
  L 167.01 519.85
  L 170.57 523.43
  L 173.58 527.24
  L 176.13 531.39
  L 177.44 534.10
  L 178.56 536.94
  L 179.46 539.81
  L 180.17 542.82
  L 180.68 545.96
  L 181.00 549.23
  L 181.01 555.97
  L 180.68 559.75
  L 180.13 563.37
  L 179.35 566.93
  L 178.34 570.31
  L 177.12 573.55
  L 175.69 576.63
  L 174.01 579.61
  L 172.14 582.42
  L 170.06 585.07
  L 167.79 587.54
  L 165.28 589.89
  L 162.60 592.05
  L 159.75 594.03
  L 156.74 595.81
  L 153.51 597.45
  L 150.14 598.88
  L 146.57 600.14
  L 142.88 601.18
  L 139.09 602.02
  L 135.21 602.65
  L 131.20 603.08
  L 127.12 603.30
  L 122.99 603.31
  L 118.82 603.11
  L 114.35 602.68
  L 109.98 602.07
  L 105.71 601.25
  L 101.53 600.25
  L 97.45 599.05
  L 93.47 597.66
  L 89.58 596.07
  L 85.80 594.29
  L 85.80 594.29
  L 85.80 594.29
  L 85.80 594.29
  L 81.69 592.08
  L 77.70 589.63
  L 73.83 586.94
  L 70.08 584.01
  L 67.83 582.00
  L 65.74 579.83
  L 64.06 577.84
  L 63.86 577.36
  L 64.02 576.87
  Z"
/>
<path fill="#2e4e57" d="
  M 355.45 496.79
  L 356.53 495.72
  L 360.21 492.66
  L 364.37 490.02
  L 368.85 487.91
  L 373.76 486.26
  L 378.99 485.12
  L 384.56 484.47
  L 390.43 484.33
  L 396.51 484.70
  L 399.85 485.14
  L 403.02 485.77
  L 406.12 486.60
  L 409.05 487.61
  L 411.82 488.80
  L 414.42 490.17
  L 416.94 491.75
  L 419.28 493.49
  L 423.06 497.01
  L 426.41 501.17
  L 429.22 505.77
  L 431.57 510.96
  L 433.39 516.62
  L 434.70 522.82
  L 435.46 529.33
  L 435.70 536.27
  L 435.63 599.98
  L 435.53 600.33
  L 435.00 600.61
  L 405.30 600.52
  L 404.62 600.28
  L 404.41 599.62
  L 404.21 538.78
  L 403.87 534.35
  L 402.91 529.40
  L 402.00 526.45
  L 400.80 523.81
  L 399.27 521.42
  L 397.48 519.36
  L 395.58 517.72
  L 393.48 516.35
  L 391.13 515.20
  L 388.60 514.33
  L 385.83 513.71
  L 382.93 513.37
  L 379.82 513.31
  L 376.62 513.52
  L 372.54 514.22
  L 368.99 515.35
  L 365.80 516.96
  L 363.12 518.98
  L 361.18 521.00
  L 359.57 523.26
  L 358.22 525.79
  L 357.09 528.72
  L 356.25 531.87
  L 355.64 535.39
  L 355.27 539.31
  L 355.14 543.59
  L 355.09 600.18
  L 354.97 600.48
  L 354.68 600.60
  L 354.68 600.60
  L 325.09 600.53
  L 324.60 600.33
  L 324.40 599.84
  L 324.32 487.25
  L 324.53 486.75
  L 325.02 486.54
  L 354.06 486.68
  L 354.52 486.83
  L 354.69 487.31
  L 354.84 496.55
  L 355.00 497.03
  L 355.45 496.79
  Z"
/>
<path fill="#2e4e57" d="
  M 223.97 555.60
  L 223.74 555.71
  L 223.67 555.95
  L 223.67 555.95
  L 223.68 556.00
  L 224.61 558.39
  L 225.71 560.60
  L 227.02 562.70
  L 228.50 564.62
  L 231.10 567.24
  L 234.18 569.54
  L 237.54 571.37
  L 241.35 572.84
  L 245.42 573.85
  L 249.84 574.44
  L 254.43 574.57
  L 259.04 574.24
  L 264.35 573.30
  L 269.20 571.78
  L 273.59 569.68
  L 277.52 567.01
  L 277.52 567.01
  L 278.09 566.54
  L 278.90 566.24
  L 279.71 566.53
  L 297.90 581.38
  L 298.35 582.21
  L 298.08 583.11
  L 294.88 586.76
  L 291.45 590.04
  L 287.82 592.95
  L 283.96 595.50
  L 283.96 595.50
  L 283.96 595.50
  L 281.08 597.10
  L 278.09 598.51
  L 275.00 599.73
  L 271.79 600.77
  L 268.47 601.63
  L 265.04 602.30
  L 257.85 603.09
  L 250.25 603.15
  L 242.84 602.46
  L 235.71 601.03
  L 232.26 600.03
  L 228.91 598.85
  L 225.75 597.52
  L 222.69 596.01
  L 219.75 594.33
  L 216.92 592.47
  L 214.25 590.46
  L 211.72 588.27
  L 209.40 585.99
  L 207.22 583.54
  L 203.69 578.74
  L 200.69 573.42
  L 198.29 567.67
  L 196.53 561.61
  L 195.32 555.18
  L 194.63 548.56
  L 194.51 541.92
  L 194.94 535.48
  L 195.93 529.23
  L 197.43 523.32
  L 199.48 517.66
  L 202.02 512.45
  L 205.46 506.98
  L 209.31 502.13
  L 213.64 497.80
  L 218.35 494.10
  L 222.42 491.56
  L 226.70 489.41
  L 231.27 487.63
  L 236.04 486.25
  L 240.99 485.28
  L 246.11 484.70
  L 251.47 484.52
  L 256.97 484.74
  L 263.66 485.61
  L 269.93 487.16
  L 275.76 489.40
  L 278.51 490.77
  L 281.16 492.32
  L 281.16 492.32
  L 281.16 492.32
  L 281.16 492.32
  L 281.16 492.32
  L 284.47 494.60
  L 287.58 497.18
  L 290.52 500.05
  L 293.27 503.22
  L 295.96 506.91
  L 298.62 511.43
  L 300.84 516.28
  L 302.63 521.53
  L 303.97 527.13
  L 304.90 533.13
  L 305.43 539.61
  L 305.58 546.71
  L 305.37 555.00
  L 305.18 555.42
  L 304.76 555.59
  L 223.97 555.60
  Z
  M 276.65 532.57
  L 276.09 529.89
  L 275.28 527.40
  L 274.19 525.01
  L 272.87 522.82
  L 270.48 519.91
  L 267.51 517.33
  L 264.09 515.24
  L 260.36 513.68
  L 256.20 512.60
  L 251.88 512.10
  L 247.48 512.18
  L 243.10 512.82
  L 239.08 513.94
  L 235.49 515.48
  L 232.34 517.45
  L 229.64 519.83
  L 229.64 519.83
  L 227.51 522.43
  L 225.76 525.41
  L 224.39 528.74
  L 223.41 532.45
  L 223.51 532.91
  L 223.91 533.14
  L 223.91 533.14
  L 223.97 533.14
  L 276.10 533.22
  L 276.14 533.22
  L 276.54 533.01
  L 276.65 532.57
  Z"
/>
<path fill="#2e4e57" d="
  M 670.66 495.95
  L 674.68 492.45
  L 678.60 489.93
  L 681.64 488.47
  L 684.84 487.23
  L 688.18 486.22
  L 691.62 485.45
  L 695.13 484.92
  L 698.67 484.65
  L 702.14 484.63
  L 705.58 484.88
  L 708.87 485.37
  L 712.09 486.12
  L 715.13 487.10
  L 718.06 488.34
  L 720.74 489.76
  L 723.28 491.43
  L 725.58 493.29
  L 727.72 495.39
  L 730.08 498.29
  L 730.40 498.47
  L 730.74 498.35
  L 730.78 498.31
  L 734.05 494.80
  L 738.10 491.51
  L 742.70 488.78
  L 747.70 486.71
  L 752.93 485.33
  L 758.51 484.62
  L 764.18 484.64
  L 769.84 485.37
  L 775.39 486.80
  L 778.63 488.02
  L 781.60 489.46
  L 784.40 491.17
  L 786.93 493.09
  L 788.95 494.94
  L 790.78 496.93
  L 792.49 499.12
  L 794.03 501.45
  L 795.46 504.04
  L 796.72 506.74
  L 798.84 512.74
  L 800.39 519.45
  L 801.42 526.93
  L 801.96 535.44
  L 802.08 545.77
  L 801.97 599.93
  L 801.97 599.93
  L 801.76 600.43
  L 801.26 600.63
  L 772.23 600.53
  L 771.76 600.34
  L 771.57 599.87
  L 771.57 599.87
  L 771.48 536.14
  L 771.32 532.48
  L 770.88 529.04
  L 770.18 525.83
  L 769.21 522.85
  L 768.43 521.11
  L 767.50 519.55
  L 766.37 518.11
  L 765.11 516.87
  L 763.46 515.65
  L 761.67 514.69
  L 759.65 513.95
  L 757.52 513.48
  L 755.26 513.27
  L 752.94 513.30
  L 750.49 513.60
  L 748.04 514.14
  L 745.55 515.07
  L 743.45 516.35
  L 741.94 517.70
  L 740.68 519.24
  L 739.57 521.08
  L 738.69 523.06
  L 737.99 525.33
  L 737.47 527.89
  L 737.16 530.61
  L 737.05 533.50
  L 737.01 600.03
  L 736.88 600.43
  L 736.46 600.57
  L 707.31 600.57
  L 707.31 600.57
  L 706.82 600.36
  L 706.62 599.87
  L 706.45 533.82
  L 706.33 531.33
  L 705.99 528.79
  L 704.67 523.57
  L 703.92 521.68
  L 703.01 519.99
  L 701.87 518.43
  L 700.58 517.10
  L 698.75 515.71
  L 696.73 514.65
  L 694.47 513.89
  L 692.09 513.46
  L 689.46 513.35
  L 686.80 513.58
  L 684.14 514.14
  L 681.54 515.02
  L 679.85 515.84
  L 678.36 516.83
  L 676.81 518.25
  L 675.51 519.87
  L 674.42 521.71
  L 673.49 523.90
  L 672.79 526.25
  L 672.28 528.89
  L 671.97 531.83
  L 671.86 534.99
  L 671.89 599.89
  L 671.72 600.39
  L 671.22 600.56
  L 642.04 600.54
  L 641.67 600.42
  L 641.41 599.91
  L 641.27 487.01
  L 641.36 486.74
  L 641.62 486.65
  L 669.42 486.71
  L 669.92 486.92
  L 670.13 487.42
  L 670.13 495.72
  L 670.26 496.15
  L 670.66 495.95
  Z"
/>
<path fill="#2e4e57" d="
  M 838.61 555.44
  L 838.34 555.56
  L 838.27 555.85
  L 838.29 555.91
  L 839.96 559.38
  L 841.90 562.47
  L 844.18 565.25
  L 846.71 567.65
  L 849.76 569.86
  L 853.07 571.63
  L 856.72 573.02
  L 860.57 573.97
  L 864.79 574.53
  L 869.14 574.65
  L 873.74 574.35
  L 878.40 573.63
  L 881.38 572.92
  L 884.22 571.98
  L 886.91 570.80
  L 889.47 569.40
  L 889.47 569.40
  L 893.19 566.73
  L 893.99 566.43
  L 894.80 566.69
  L 903.76 573.70
  L 911.94 580.88
  L 912.35 581.73
  L 912.07 582.64
  L 908.16 587.10
  L 903.98 590.97
  L 899.44 594.34
  L 894.66 597.12
  L 890.21 599.12
  L 885.61 600.67
  L 880.78 601.81
  L 875.81 602.50
  L 870.64 602.75
  L 865.37 602.56
  L 859.92 601.93
  L 854.41 600.86
  L 849.06 599.33
  L 844.04 597.33
  L 839.26 594.83
  L 834.83 591.89
  L 830.40 588.18
  L 826.42 584.02
  L 822.87 579.36
  L 819.82 574.31
  L 817.29 568.90
  L 815.30 563.17
  L 813.86 557.18
  L 812.99 550.95
  L 812.66 545.19
  L 812.73 539.49
  L 813.20 534.02
  L 814.10 528.65
  L 815.37 523.60
  L 817.07 518.68
  L 819.14 514.04
  L 821.65 509.56
  L 823.93 506.16
  L 827.38 501.85
  L 831.11 498.02
  L 835.13 494.66
  L 839.43 491.79
  L 839.43 491.79
  L 839.43 491.79
  L 839.43 491.79
  L 843.49 489.64
  L 847.78 487.87
  L 852.29 486.48
  L 857.03 485.47
  L 861.92 484.85
  L 866.76 484.66
  L 871.62 484.88
  L 876.38 485.53
  L 881.03 486.59
  L 885.53 488.06
  L 889.86 489.92
  L 894.00 492.17
  L 897.04 494.15
  L 899.94 496.35
  L 902.69 498.76
  L 905.29 501.38
  L 907.71 504.19
  L 909.95 507.20
  L 911.96 510.31
  L 913.79 513.60
  L 915.77 517.89
  L 917.43 522.49
  L 918.73 527.21
  L 919.70 532.22
  L 920.34 537.44
  L 920.66 542.92
  L 920.65 548.74
  L 920.32 554.85
  L 920.13 555.23
  L 919.74 555.39
  L 838.61 555.44
  Z
  M 838.52 533.45
  L 891.74 533.42
  L 891.77 533.42
  L 892.13 533.23
  L 892.24 532.84
  L 891.38 529.09
  L 889.96 525.65
  L 888.61 523.37
  L 887.02 521.27
  L 885.21 519.37
  L 883.18 517.67
  L 880.93 516.16
  L 878.51 514.89
  L 875.93 513.87
  L 873.22 513.10
  L 869.30 512.42
  L 865.44 512.18
  L 861.69 512.37
  L 858.07 513.00
  L 854.62 514.04
  L 851.38 515.50
  L 848.46 517.31
  L 845.80 519.51
  L 843.26 522.31
  L 841.11 525.56
  L 839.43 529.10
  L 838.20 533.05
  L 838.32 533.38
  L 838.52 533.45
  Z"
/>
<path fill="#fcfcfc" d="
  M 483.53 550.95
  L 482.96 546.12
  L 483.00 541.36
  L 483.66 536.64
  L 484.91 532.12
  L 486.73 527.93
  L 489.10 524.07
  L 491.94 520.68
  L 495.29 517.73
  L 498.24 515.78
  L 501.47 514.17
  L 504.87 512.96
  L 508.54 512.11
  L 512.66 511.61
  L 516.64 511.54
  L 520.55 511.89
  L 524.26 512.66
  L 527.85 513.85
  L 531.18 515.44
  L 534.25 517.40
  L 537.03 519.70
  L 539.56 522.42
  L 541.73 525.45
  L 543.53 528.79
  L 544.94 532.41
  L 545.90 536.19
  L 546.43 540.20
  L 546.52 544.30
  L 546.17 548.57
  L 545.68 551.38
  L 544.99 554.08
  L 544.11 556.66
  L 543.03 559.12
  L 541.74 561.48
  L 540.26 563.69
  L 538.61 565.75
  L 536.78 567.65
  L 533.25 570.51
  L 529.25 572.82
  L 524.91 574.53
  L 520.18 575.64
  L 516.25 576.08
  L 512.41 576.12
  L 508.60 575.75
  L 504.94 574.96
  L 501.46 573.78
  L 498.19 572.22
  L 495.16 570.27
  L 492.40 567.96
  L 489.28 564.46
  L 486.71 560.39
  L 484.77 555.82
  L 483.53 550.95
  Z"
/>
<path fill="#fcfcfc" d="
  M 243.10 512.82
  L 247.48 512.18
  L 251.88 512.10
  L 256.20 512.60
  L 260.36 513.68
  L 264.09 515.24
  L 267.51 517.33
  L 270.48 519.91
  L 272.87 522.82
  L 274.19 525.01
  L 275.28 527.40
  L 276.09 529.89
  L 276.65 532.57
  L 276.54 533.01
  L 276.14 533.22
  L 276.10 533.22
  L 223.97 533.14
  L 223.91 533.14
  L 223.51 532.91
  L 223.41 532.45
  L 224.39 528.74
  L 225.76 525.41
  L 227.51 522.43
  L 229.64 519.83
  L 229.64 519.83
  L 232.34 517.45
  L 235.49 515.48
  L 239.08 513.94
  L 243.10 512.82
  Z"
/>
<path fill="#fcfcfc" d="
  M 838.52 533.45
  L 838.26 533.33
  L 838.20 533.05
  L 839.43 529.10
  L 841.11 525.56
  L 843.26 522.31
  L 845.80 519.51
  L 848.46 517.31
  L 851.38 515.50
  L 854.62 514.04
  L 858.07 513.00
  L 861.69 512.37
  L 865.44 512.18
  L 869.30 512.42
  L 873.22 513.10
  L 875.93 513.87
  L 878.51 514.89
  L 880.93 516.16
  L 883.18 517.67
  L 885.21 519.37
  L 887.02 521.27
  L 888.61 523.37
  L 889.96 525.65
  L 891.38 529.09
  L 892.24 532.84
  L 892.13 533.23
  L 891.77 533.42
  L 891.74 533.42
  L 838.52 533.45
  Z"
/>
</svg>
